<svg xmlns="http://www.w3.org/2000/svg" viewBox="0 0 100 100">
  <rect width="100" height="100" rx="22" fill="#9B8EC4"/>
  <!-- 귀 -->
  <polygon points="20,50 14,18 42,38" fill="#C4A8E8"/>
  <polygon points="80,50 86,18 58,38" fill="#C4A8E8"/>
  <polygon points="22,48 18,24 40,38" fill="#F9C0D0"/>
  <polygon points="78,48 82,24 60,38" fill="#F9C0D0"/>
  <!-- 얼굴 -->
  <circle cx="50" cy="62" r="34" fill="#FFF5EE"/>
  <!-- 눈 -->
  <ellipse cx="37" cy="58" rx="6.5" ry="5.5" fill="#2D2D2D"/>
  <ellipse cx="63" cy="58" rx="6.5" ry="5.5" fill="#2D2D2D"/>
  <circle cx="35" cy="56" r="2.2" fill="white"/>
  <circle cx="61" cy="56" r="2.2" fill="white"/>
  <!-- 코 -->
  <polygon points="50,70 46,75 54,75" fill="#FFB6B6"/>
  <!-- 입 -->
  <path d="M46,76 Q50,82 54,76" stroke="#E08080" stroke-width="1.8" fill="none" stroke-linecap="round"/>
  <!-- 수염 -->
  <line x1="10" y1="67" x2="43" y2="70" stroke="#CCCCCC" stroke-width="1.3"/>
  <line x1="10" y1="73" x2="43" y2="72" stroke="#CCCCCC" stroke-width="1.3"/>
  <line x1="57" y1="70" x2="90" y2="67" stroke="#CCCCCC" stroke-width="1.3"/>
  <line x1="57" y1="72" x2="90" y2="73" stroke="#CCCCCC" stroke-width="1.3"/>
</svg>
